<svg
    xmlns="http://www.w3.org/2000/svg"
    xmlns:xlink="http://www.w3.org/1999/xlink" width="806.515" height="622.911" viewBox="0 0 806.515 622.911">
    <defs>
        <linearGradient id="a" x1="0.26" y1="0.763" x2="0.799" y2="0.279" gradientUnits="objectBoundingBox">
            <stop offset="0" stop-color="#dd54fe"/>
            <stop offset="1" stop-color="#b410db"/>
        </linearGradient>
        <linearGradient id="b" x1="0.076" y1="-0.068" x2="0.675" y2="0.714" gradientUnits="objectBoundingBox">
            <stop offset="0" stop-color="#d4a397"/>
            <stop offset="1" stop-color="#fff"/>
        </linearGradient>
        <linearGradient id="c" x1="0.356" y1="0.095" x2="0.6" y2="0.741" gradientUnits="objectBoundingBox">
            <stop offset="0.01" stop-color="#4d4d4d"/>
            <stop offset="1" stop-color="#fff"/>
        </linearGradient>
        <linearGradient id="d" x1="0.162" y1="-0.151" x2="0.67" y2="0.729" xlink:href="#c"/>
        <linearGradient id="e" x1="-48.981" y1="0.068" x2="-48.533" y2="0.823" gradientUnits="objectBoundingBox">
            <stop offset="0" stop-color="#78b46a"/>
            <stop offset="0.03" stop-color="#7f3500"/>
            <stop offset="1" stop-color="#fff"/>
        </linearGradient>
        <linearGradient id="f" x1="0.014" y1="-0.139" x2="0.703" y2="0.74" xlink:href="#b"/>
        <linearGradient id="g" x1="0.081" y1="-0.025" x2="0.674" y2="0.709" xlink:href="#b"/>
    </defs>
    <g transform="translate(-15.909 26.443)">
        <g transform="translate(15.909 21.678)">
            <path d="M407.249,535.712,31.591,313.69c-11.96-6.725-22.211-17.742-10.558-24.971L398.027,71.451c5.651-3.5,14.238-5.8,20-2.453L812.3,297.853c11.96,6.944,14.106,26.285,2.19,33.294l-357.74,204.17a49.942,49.942,0,0,1-49.5.394Z" transform="translate(-15.909 32.708)" fill="url(#a)"/>
            <path d="M184.492,215.95,244.2,249.091s-55.79,43.984-80.827,54.585L103.6,268.082" transform="translate(370.231 209.589)" fill="url(#b)"/>
            <path d="M302.983,268.13s-72.175-40.413-72.613-41.092L342.5,170.59l63.062,36.4Z" transform="translate(-68.806 155.591)" fill="url(#c)"/>
            <path d="M338.157,140.829,246.6,197.583a5.673,5.673,0,0,0,.2,9.769l138.961,78.527a12.727,12.727,0,0,0,12.7,0L489.6,232.3c6.571-5.432,4.775-13.493,0-16.122l-138.15-75.526a12.924,12.924,0,0,0-13.3.175Z" transform="translate(-186.778 117.865)" fill="#68e1fd"/>
            <path d="M338.518,139.021l-91.56,56.754a5.673,5.673,0,0,0,.2,9.769l138.939,78.592a12.727,12.727,0,0,0,12.7,0l91.144-53.578a7.053,7.053,0,0,0,0-12.2l-138.15-79.425A12.923,12.923,0,0,0,338.518,139.021Z" transform="translate(-187.139 115.774)" fill="#fff"/>
            <path d="M340.07,139.4l-92.02,57.915,137.625,78.746,94.955-55.834Z" transform="translate(-182.602 118.461)" fill="#606060"/>
            <ellipse cx="3.264" cy="1.533" rx="3.264" ry="1.533" transform="translate(253.321 367.383)" fill="#383097"/>
            <path d="M318.757,195.946s-11.982-22.277-12.047-22.386l2.059-1.03,25.453,14.7Z" transform="translate(-164.684 157.9)" fill="url(#d)"/>
            <path d="M323.137,146.7a1.247,1.247,0,0,0,0-.482,13.318,13.318,0,0,1,3.987-1.336l85.427,50.993s5.126,4.008-4.381,9.419L321.45,153.751A18.2,18.2,0,0,1,323.137,146.7Z" transform="translate(-276.679 124.985)" fill="#ccc"/>
            <path d="M321.651,168.15S331.6,179.277,331.77,180s-14.391-2.431-14.391-2.431" transform="translate(-185.605 152.686)" fill="#ccc"/>
            <ellipse cx="6.177" cy="0.228" rx="6.177" ry="0.228" transform="translate(52.933 277.507) rotate(-150)" fill="#f2f2f2"/>
            <ellipse cx="4.169" cy="8.155" rx="4.169" ry="8.155" transform="translate(481.055 256.021) rotate(-100.9)" fill="#ab643c"/>
            <path d="M189.65,170.2l-74.869,42.779a5.147,5.147,0,0,0,0,8.915L322.74,341.538a16.6,16.6,0,0,0,16.582,0l70.094-40.457a5.367,5.367,0,0,0,0-9.287L199,170.247A9.309,9.309,0,0,0,189.65,170.2Z" transform="translate(183.487 153.656)" fill="#974c26"/>
            <path d="M176.219,200.67,154.84,213.331l15.859,9.222c4.381-2.607,17.3-10.185,21.444-12.617Z" transform="translate(310.054 191.399)" fill="#fff"/>
            <path d="M184.979,194.46,163.6,207.121,183.686,218.8c3.5-2.037,16.45-9.682,21.444-12.617Z" transform="translate(277.878 184.006)" fill="#fff"/>
            <path d="M224.647,171.91,202.94,184.374l19.32,11.215c3.067-1.774,16.165-9.506,21.444-12.617Z" transform="translate(153.134 157.162)" fill="#fff"/>
            <path d="M204.869,184,183.49,196.661l15.859,9.2c3.746-2.19,16.647-9.791,21.444-12.617Z" transform="translate(218.648 171.554)" fill="#fff"/>
            <path d="M213.589,177.82,192.21,190.481l20.174,11.675c2.366-1.358,15.815-9.287,21.444-12.617Z" transform="translate(186.513 164.198)" fill="#fff"/>
            <path d="M167.769,205.76,146.39,218.421l15.18,8.762c4.556-2.672,17.392-10.229,21.444-12.617Z" transform="translate(337.692 197.458)" fill="#fff"/>
            <path d="M195.679,189.12,174.3,201.781l16.8,9.747c3.943-2.19,16.8-9.879,21.444-12.617Z" transform="translate(247.027 177.649)" fill="#fff"/>
            <path d="M157.079,210.67,135.7,223.331l20.086,11.675c4.206-2.453,17.02-10.01,21.444-12.617Z" transform="translate(366.891 203.303)" fill="#fff"/>
            <path d="M138.969,216.88,117.59,229.541l36.033,20.919L175.352,238Z" transform="translate(408.439 210.696)" fill="#fff"/>
            <path d="M231.837,179.29,210.13,191.754l28.059,16.3c3.68-2.19,16.582-9.747,21.444-12.617Z" transform="translate(121.455 165.947)" fill="#fff"/>
            <path d="M212.049,193.73,190.67,206.391l15.859,9.222c4.249-2.475,17.063-10.032,21.444-12.617Z" transform="translate(195.741 183.137)" fill="#fff"/>
            <path d="M192.179,204.16,170.8,216.821,190.886,228.5c4.03-2.344,16.866-9.923,21.444-12.617Z" transform="translate(254.907 195.553)" fill="#fff"/>
            <path d="M202.859,198.82,181.48,211.481l16.8,9.747c4.381-2.563,17.239-10.142,21.444-12.617Z" transform="translate(224.119 189.197)" fill="#fff"/>
            <path d="M183.4,210.37,162.02,223.031l15.859,9.222c4.907-2.869,17.808-10.492,21.444-12.617Z" transform="translate(287.147 202.946)" fill="#fff"/>
            <path d="M174.949,215.46,153.57,228.121l15.18,8.762c4.994-2.913,17.918-10.558,21.444-12.617Z" transform="translate(314.785 209.005)" fill="#fff"/>
            <path d="M220.809,187.52,199.43,200.181l20.086,11.653c3.176-1.84,16.253-9.55,21.444-12.617Z" transform="translate(163.566 175.745)" fill="#fff"/>
            <path d="M164.259,220.37,142.88,233.031l20.086,11.675c4.644-2.716,17.523-10.295,21.444-12.617Z" transform="translate(343.984 214.85)" fill="#fff"/>
            <path d="M128.77,239.253l27.293,15.837,21.707-12.464L150.149,226.57Z" transform="translate(381.532 222.231)" fill="#fff"/>
            <path d="M165.812,231.37l-15.9,9.441,18.443,10.667,16.143-9.266Z" transform="translate(328.499 227.945)" fill="#fff"/>
            <path d="M141,246.679l15.683,9.09,16.165-9.244-15.968-9.266Z" transform="translate(359.664 234.956)" fill="#fff"/>
            <path d="M243.207,186.88,226.56,196.1l18.881,10.952,16.341-9.4Z" transform="translate(83.318 174.983)" fill="#fff"/>
            <path d="M231.686,192.74l-16.056,9.528,20.152,11.7L252.1,204.59Z" transform="translate(116.941 181.959)" fill="#fff"/>
            <path d="M176.094,199.09l-16.034,9.528L278.08,277l16.187-9.287Z" transform="translate(196.496 189.518)" fill="#fff"/>
            <path d="M261.867,107l30.666,18.115s-9.463,16.6-32.856,26.417L224.06,132.387" transform="translate(58.043 79.892)" fill="url(#e)"/>
            <ellipse cx="28.366" cy="19.977" rx="28.366" ry="19.977" transform="translate(266.683 173.815)" fill="#68e1fd"/>
            <ellipse cx="21.247" cy="8.696" rx="21.247" ry="8.696" transform="translate(273.78 173.289)" fill="#974c26"/>
            <path d="M269.965,144.527c-1.665-2.344-3.351-4.8-5.1-7.557-2.19-3.527-4.381-7.119-6.286-10.843A71.561,71.561,0,0,1,254,115.876a85.691,85.691,0,0,1-3.351-11.763c-.219-1.051-.394-2.19-.591-3.154V99.667c-.2-2.19-.329-4.381-.35-6.44a54.212,54.212,0,0,1,4.228-21.707A93.619,93.619,0,0,1,269.089,108.6q.219,1.183.416,2.388s.219,1.446.307,2.037l.219,1.993q.153,1.511.285,3.045c.307,3.921.46,7.842.438,11.763C270.578,134.736,270.359,139.642,269.965,144.527Zm-9.025-58.616q-.767-.876-1.6-1.709h0a3.527,3.527,0,0,1,0,1.533,4.863,4.863,0,0,1,1.577.175Z" transform="translate(23.66 37.655)" fill="#999a1c"/>
            <path d="M238.678,143.141c-.153-2.869-.219-5.848-.2-9.112,0-4.184.2-8.346.569-12.507a71.571,71.571,0,0,1,1.687-11.105A85.7,85.7,0,0,1,244.264,98.7c.394-1.008.789-1.993,1.227-2.979.2-.46.153-.416.11-.35l.438-.81c1.008-1.906,2.037-3.789,3.176-5.607a54.212,54.212,0,0,1,15.333-15.99,93.62,93.62,0,0,1-7.294,39.428q-.46,1.117-.942,2.19l-.854,1.884-.9,1.818q-.679,1.358-1.4,2.716-2.793,5.191-5.98,10.142C244.5,135.278,241.657,139.264,238.678,143.141ZM262.773,88.95q-.175-1.161-.416-2.19h0a3.528,3.528,0,0,1-.745,1.336,4.863,4.863,0,0,1,1.161.876Z" transform="translate(54.399 39.369)" fill="#999a1c"/>
            <path d="M233.66,121.783c.854-1.6,1.774-3.22,2.826-4.994,1.358-2.19,2.8-4.381,4.381-6.571a45.008,45.008,0,0,1,4.556-5.432,53.906,53.906,0,0,1,5.7-5.191l1.533-1.249c.263-.175.219-.175.175-.153l.5-.307c1.161-.7,2.322-1.38,3.527-1.993a34.1,34.1,0,0,1,13.405-3.7,58.879,58.879,0,0,1-16.647,18.9l-1.227.9-1.051.745-1.073.679-1.643,1.008q-3.176,1.906-6.571,3.548A85.365,85.365,0,0,1,233.66,121.783Zm30.491-21.466q.285-.679.526-1.38h0a2.19,2.19,0,0,1-.832.482,3.067,3.067,0,0,1,.307.9Z" transform="translate(59.286 62.261)" fill="#999a1c"/>
            <path d="M269.965,144.527c-1.665-2.344-3.351-4.8-5.1-7.557-2.19-3.527-4.381-7.119-6.286-10.843A71.561,71.561,0,0,1,254,115.876a85.691,85.691,0,0,1-3.351-11.763c-.219-1.051-.394-2.19-.591-3.154V99.667c-.2-2.19-.329-4.381-.35-6.44a54.212,54.212,0,0,1,4.228-21.707A93.619,93.619,0,0,1,269.089,108.6q.219,1.183.416,2.388s.219,1.446.307,2.037l.219,1.993q.153,1.511.285,3.045c.307,3.921.46,7.842.438,11.763C270.578,134.736,270.359,139.642,269.965,144.527Zm-9.025-58.616q-.767-.876-1.6-1.709h0a3.527,3.527,0,0,1,0,1.533,4.863,4.863,0,0,1,1.577.175Z" transform="translate(23.66 37.655)" fill="#999a1c"/>
            <path d="M238.678,143.141c-.153-2.869-.219-5.848-.2-9.112,0-4.184.2-8.346.569-12.507a71.571,71.571,0,0,1,1.687-11.105A85.7,85.7,0,0,1,244.264,98.7c.394-1.008.789-1.993,1.227-2.979.2-.46.153-.416.11-.35l.438-.81c1.008-1.906,2.037-3.789,3.176-5.607a54.212,54.212,0,0,1,15.333-15.99,93.62,93.62,0,0,1-7.294,39.428q-.46,1.117-.942,2.19l-.854,1.884-.9,1.818q-.679,1.358-1.4,2.716-2.793,5.191-5.98,10.142C244.5,135.278,241.657,139.264,238.678,143.141ZM262.773,88.95q-.175-1.161-.416-2.19h0a3.528,3.528,0,0,1-.745,1.336,4.863,4.863,0,0,1,1.161.876Z" transform="translate(54.399 39.369)" fill="#999a1c"/>
            <path d="M233.66,121.783c.854-1.6,1.774-3.22,2.826-4.994,1.358-2.19,2.8-4.381,4.381-6.571a45.008,45.008,0,0,1,4.556-5.432,53.906,53.906,0,0,1,5.7-5.191l1.533-1.249c.263-.175.219-.175.175-.153l.5-.307c1.161-.7,2.322-1.38,3.527-1.993a34.1,34.1,0,0,1,13.405-3.7,58.879,58.879,0,0,1-16.647,18.9l-1.227.9-1.051.745-1.073.679-1.643,1.008q-3.176,1.906-6.571,3.548A85.365,85.365,0,0,1,233.66,121.783Zm30.491-21.466q.285-.679.526-1.38h0a2.19,2.19,0,0,1-.832.482,3.067,3.067,0,0,1,.307.9Z" transform="translate(59.286 62.261)" fill="#999a1c"/>
            <g transform="translate(0 -48.121)">
                <path d="M146.737,155.46,206.448,188.6s-14.3,22.627-39.428,33.141l-64.53-35.594" transform="translate(410.418 137.58)" fill="url(#f)"/>
                <path d="M169.663,135.68l-35.879,17.282a8.258,8.258,0,0,0-.569,14.566l85.054,49.613a8.258,8.258,0,0,0,11.105-2.672l20.656-32.09" transform="translate(308.505 114.033)" fill="#56403d"/>
                <path d="M375.285,188.286,89.083,23.413A12.9,12.9,0,0,0,69.72,34.606v171.51a10.733,10.733,0,0,0,5.367,9.287L380.147,391.492a6.922,6.922,0,0,0,10.383-6V214.637a30.469,30.469,0,0,0-15.245-26.351Z" transform="translate(298.116 -21.678)" fill="#68e1fd"/>
                <path d="M85.959,28.841,363.443,188.5a19.451,19.451,0,0,1,9.747,16.866V333.946a7.031,7.031,0,0,1-10.514,6.089l-283-162.4a6.922,6.922,0,0,1-3.483-6V34.558a6.571,6.571,0,0,1,9.769-5.717Z" transform="translate(301.284 -14.139)" fill="#fff"/>
                <path d="M204.9,205.539,103.72,151.721,164.439,93.74Z" transform="translate(409.275 64.106)" fill="#e88831"/>
                <circle cx="38.508" cy="38.508" r="38.508" transform="translate(395.654 65.454)" fill="#7acc92"/>
                <path d="M99.56,110.646c6.133-3.5,11.653,5.958,5.52,9.463-19.035,10.952-3.789,34.784,10.383,41.618,6.352,3.045.81,12.507-5.52,9.463C87.819,160.522,73.275,125.475,99.56,110.646Z" transform="translate(535.902 83.32)" fill="#56403d"/>
                <path d="M157.682,105.609c5.827-27.227,42.472-10.514,36.1,14.172-2.76,10.689-14.413,16.91-24.489,11.609a24.1,24.1,0,0,1-11.609-25.781Zm10.558,6.834a12.113,12.113,0,0,0,6.725,9.506c8.367,3.2,8.17-7.426,6.111-12.507-3.68-9.419-14.632-8.214-12.792,3.088Z" transform="translate(302.546 61.569)" fill="#56403d"/>
            </g>
            <path d="M367.679,320.137a8.762,8.762,0,0,0-4.95-6.571l-15.881-9.156-24.533-14.216-29.308-16.976-31.192-18.049-30.162-17.523-26.285-15.18-19.385-11.215L175.8,205.359c0,.219-.35.219-.569.153a7.25,7.25,0,0,0-8.762,8.762c1.183,4.6,5.1,8.652,8.762,11.456a352.215,352.215,0,0,0,37.062,23.262v-4.578c-8.63-4.731-27.249-15.333-35.047-23.438l3.724,2.19,10.251,6,15.443,9.025,19.276,11.259,21.839,12.858,22.912,13.384,22.693,13.252L314.5,301.3l18.115,10.667,13.953,8.148c4.249,2.5,8.871,5.87,13.822,6.834a6.812,6.812,0,0,0,7.294-6.812Z" transform="translate(109.503 196.917)" fill="#68e1fd"/>
            <path d="M252.225,151.1l32.725,19.495s-21.488,20.59-46.525,31.126L208,181.854" transform="translate(100.804 132.389)" fill="url(#g)"/>
            <path d="M325.577,146.464v15.311l-47.291,29.286-56.776-34.7V143.31" transform="translate(30.584 123.116)" fill="#e54c3c"/>
            <path d="M221.51,158.988l48.211-28.848,55.856,32-48.211,29.286Z" transform="translate(30.584 107.438)" fill="#f5604b"/>
        </g>
    </g>
</svg>